<?xml version="1.0" encoding="utf-8"?>
<!-- Generator: Adobe Illustrator 16.0.4, SVG Export Plug-In . SVG Version: 6.00 Build 0)  -->
<!DOCTYPE svg PUBLIC "-//W3C//DTD SVG 1.1//EN" "http://www.w3.org/Graphics/SVG/1.1/DTD/svg11.dtd">
<svg version="1.1" id="Layer_1" xmlns="http://www.w3.org/2000/svg" xmlns:xlink="http://www.w3.org/1999/xlink" x="0px" y="0px"
	 width="120px" height="39.186px" viewBox="0 0 120 39.186" enable-background="new 0 0 120 39.186" xml:space="preserve">
<g id="layer1_1_" transform="translate(-889.85553,-314.53342)">
	<g id="g6762" transform="matrix(3.8824272,0,0,3.8824272,-171.52727,-2605.337)">
		<g id="g222" transform="matrix(1.25,0,0,-1.25,-46.875,1061.1122)">
			<g>
				<g>
					<path id="SVGID_1_" fill="#FFFFFF" d="M259.009,243.2l1.581,2.244h-1.159l-0.978-1.431l-0.977,1.431h-1.16l1.58-2.244
						l-1.69-2.405h1.16l1.088,1.592l2.26-3.231h1.113L259.009,243.2z M280.932,245.444h-1.091l-1.622-2.962l-1.11,2.962h-1.048
						l1.558-4.053l-1.206-2.234h1.068L280.932,245.444z M261.582,245.444h-0.477l-0.553-0.79h1.03v-3.858h1.011v3.858h1.032v0.79
						h-1.032v0.45c0,0.34,0.142,0.478,0.485,0.478c0.197,0,0.401-0.039,0.546-0.078v0.814c-0.207,0.074-0.495,0.123-0.807,0.123
						c-0.774,0-1.236-0.507-1.236-1.352v-0.435H261.582z M273.754,244.654v-2.598c0-0.848,0.461-1.35,1.234-1.35
						c0.257,0,0.511,0.031,0.704,0.09l0.122,0.807c-0.058-0.014-0.27-0.065-0.457-0.065c-0.421,0-0.594,0.169-0.594,0.588v2.529
						h1.162l-0.302,0.79h-0.86v1.679l-1.009-0.513v-1.166h-0.736v-0.79h0.736V244.654z M268.557,245.537
						c-0.476,0-0.929-0.2-1.164-0.512v0.42h-1.011v-4.649h1.011v2.713c0,0.754,0.326,1.17,0.918,1.17
						c0.644,0,0.918-0.377,0.918-1.258v-2.625h1.009v2.66C270.238,244.818,269.658,245.537,268.557,245.537L268.557,245.537z
						 M265.301,241.056v4.388h-1.011v-4.649h1.011V241.056L265.301,241.056z M272.287,241.056v4.388h-1.016v-4.649h1.016V241.056"/>
				</g>
				<g>
					<defs>
						<path id="SVGID_2_" d="M259.009,243.2l1.581,2.244h-1.159l-0.978-1.431l-0.977,1.431h-1.16l1.58-2.244l-1.69-2.405h1.16
							l1.088,1.592l2.26-3.231h1.113L259.009,243.2z M280.932,245.444h-1.091l-1.622-2.962l-1.11,2.962h-1.048l1.558-4.053
							l-1.206-2.234h1.068L280.932,245.444z M261.582,245.444h-0.477l-0.553-0.79h1.03v-3.858h1.011v3.858h1.032v0.79h-1.032v0.45
							c0,0.34,0.142,0.478,0.485,0.478c0.197,0,0.401-0.039,0.546-0.078v0.814c-0.207,0.074-0.495,0.123-0.807,0.123
							c-0.774,0-1.236-0.507-1.236-1.352v-0.435H261.582z M273.754,244.654v-2.598c0-0.848,0.461-1.35,1.234-1.35
							c0.257,0,0.511,0.031,0.704,0.09l0.122,0.807c-0.058-0.014-0.27-0.065-0.457-0.065c-0.421,0-0.594,0.169-0.594,0.588v2.529
							h1.162l-0.302,0.79h-0.86v1.679l-1.009-0.513v-1.166h-0.736v-0.79h0.736V244.654z M268.557,245.537
							c-0.476,0-0.929-0.2-1.164-0.512v0.42h-1.011v-4.649h1.011v2.713c0,0.754,0.326,1.17,0.918,1.17
							c0.644,0,0.918-0.377,0.918-1.258v-2.625h1.009v2.66C270.238,244.818,269.658,245.537,268.557,245.537L268.557,245.537z
							 M265.301,241.056v4.388h-1.011v-4.649h1.011V241.056L265.301,241.056z M272.287,241.056v4.388h-1.016v-4.649h1.016V241.056"
							/>
					</defs>
					<use xlink:href="#SVGID_2_"  overflow="visible" fill="#FFFFFF"/>
					<clipPath id="SVGID_3_">
						<use xlink:href="#SVGID_2_"  overflow="visible"/>
					</clipPath>
					<g id="g224" clip-path="url(#SVGID_3_)">
						<g id="g230">
							<g id="g236">
								<path id="path250" fill="#FFFFFF" d="M255.28,247.197h25.652v-8.04H255.28V247.197z"/>
							</g>
						</g>
					</g>
				</g>
			</g>
		</g>
		<g id="g252" transform="matrix(1.25,0,0,-1.25,347.9825,771.1547)">
			<path id="path254" fill="#FFFFFF" d="M-35.809,9.125c0.072,0,0.114,0.035,0.114,0.09v0.003c0,0.058-0.042,0.09-0.114,0.09h-0.144
				V9.125H-35.809z M-36.063,9.407h0.258c0.076,0,0.136-0.023,0.176-0.063c0.03-0.029,0.047-0.07,0.047-0.12V9.221
				c0-0.093-0.055-0.152-0.135-0.174l0.156-0.218h-0.132l-0.14,0.2h-0.121v-0.2h-0.11v0.578H-36.063z M-35.344,9.101v0.004
				c0,0.274-0.213,0.495-0.494,0.495c-0.283,0-0.496-0.225-0.496-0.499V9.099c0-0.274,0.212-0.496,0.493-0.496
				C-35.558,8.603-35.344,8.828-35.344,9.101z M-36.393,9.099v0.003c0,0.301,0.245,0.554,0.555,0.554c0.311,0,0.552-0.25,0.552-0.55
				V9.101c0-0.301-0.245-0.554-0.556-0.554C-36.152,8.548-36.393,8.797-36.393,9.099"/>
		</g>
	</g>
</g>
</svg>
