<?xml version="1.0" encoding="utf-8"?>
<!-- Generator: Adobe Illustrator 16.0.4, SVG Export Plug-In . SVG Version: 6.00 Build 0)  -->
<!DOCTYPE svg PUBLIC "-//W3C//DTD SVG 1.1//EN" "http://www.w3.org/Graphics/SVG/1.1/DTD/svg11.dtd">
<svg version="1.1" id="Layer_1" xmlns="http://www.w3.org/2000/svg" xmlns:xlink="http://www.w3.org/1999/xlink" x="0px" y="0px"
	 width="242px" height="242px" viewBox="0 0 242 242" enable-background="new 0 0 242 242" xml:space="preserve">
<g>
	<g>
		<g>
			<g>
				<path fill="#FFFFFF" d="M152.938,87.166c-2.209,0-4-1.791-4-4v-27c0-1.618,0.975-3.076,2.47-3.695
					c1.494-0.62,3.216-0.277,4.358,0.867l13.5,13.5c1.562,1.562,1.562,4.095,0,5.657c-1.561,1.562-4.096,1.562-5.656,0l-6.672-6.672
					v17.343C156.938,85.375,155.147,87.166,152.938,87.166z"/>
			</g>
			<g>
				<path fill="#FFFFFF" d="M179.938,87.166c-1.023,0-2.048-0.391-2.828-1.171l-9-9c-1.562-1.562-1.562-4.095,0-5.657
					c1.561-1.562,4.096-1.562,5.656,0l9,9c1.562,1.562,1.562,4.095,0,5.657C181.986,86.775,180.961,87.166,179.938,87.166z"/>
			</g>
			<g>
				<path fill="#FFFFFF" d="M170.938,78.166c-1.023,0-2.048-0.391-2.828-1.171l-4.5-4.5c-1.562-1.562-1.562-4.095,0-5.657l13.5-13.5
					c1.561-1.562,4.096-1.562,5.656,0c1.562,1.562,1.562,4.095,0,5.657l-10.671,10.671l1.671,1.671c1.562,1.562,1.562,4.095,0,5.657
					C172.986,77.775,171.961,78.166,170.938,78.166z"/>
			</g>
		</g>
		<g>
			<path fill="#FFFFFF" d="M179.939,132.166c-1.041,0-2.064-0.406-2.829-1.172l-20.172-20.171v17.343c0,2.209-1.791,4-4,4
				s-4-1.791-4-4v-27c0-1.618,0.975-3.076,2.47-3.695c1.494-0.621,3.216-0.276,4.358,0.867l20.172,20.171v-17.343
				c0-2.209,1.791-4,4-4s4,1.791,4,4v27c0,1.618-0.975,3.076-2.47,3.695C180.974,132.066,180.454,132.166,179.939,132.166z"/>
		</g>
		<g>
			<g>
				<path fill="#FFFFFF" d="M171.938,192.333h-42c-6.617,0-12-5.383-12-12v-23.999c0-6.617,5.383-12,12-12h50c2.209,0,4,1.791,4,4
					s-1.791,4-4,4h-50c-2.206,0-4,1.794-4,4v23.999c0,2.206,1.794,4,4,4h42c2.206,0,4-1.794,4-4v-4c0-2.206-1.794-4-4-4h-29
					c-2.209,0-4-1.791-4-4s1.791-4,4-4h29c6.617,0,12,5.383,12,12v4C183.938,186.95,178.555,192.333,171.938,192.333z"/>
			</g>
		</g>
		<g>
			<path fill="#FFFFFF" d="M62.062,129.666c-2.209,0-4-1.791-4-4v-72c0-1.618,0.975-3.076,2.469-3.695
				c1.495-0.619,3.215-0.277,4.359,0.867l38.171,38.172V54.045c0-1.618,0.975-3.076,2.469-3.695
				c1.495-0.619,3.216-0.277,4.359,0.867l27.875,27.875c1.562,1.562,1.562,4.095,0,5.657c-1.561,1.562-4.094,1.562-5.656,0
				l-21.047-21.047v34.943c0,1.618-0.975,3.087-2.469,3.706c-1.496,0.62-3.215,0.288-4.359-0.856L66.062,63.323v62.343
				C66.062,127.875,64.271,129.666,62.062,129.666z"/>
		</g>
		<g>
			<path fill="#FFFFFF" d="M62.062,192.333c-0.376,0-0.757-0.053-1.131-0.163c-1.701-0.502-2.869-2.063-2.869-3.837v-42.667
				c0-2.209,1.791-4,4-4s4,1.791,4,4v29.103l37.64-58.272c0.962-1.49,2.791-2.169,4.491-1.666c1.701,0.501,2.869,2.063,2.869,3.836
				v12.865l20.515-31.761c1.198-1.855,3.674-2.39,5.53-1.189c1.856,1.199,2.389,3.674,1.19,5.53l-27.876,43.154
				c-0.962,1.49-2.79,2.168-4.491,1.667c-1.701-0.502-2.869-2.063-2.869-3.837v-12.864l-37.64,58.271
				C64.672,191.665,63.395,192.333,62.062,192.333z"/>
		</g>
	</g>
	<g>
		<path fill="#FFFFFF" d="M121,242C54.28,242,0,187.72,0,121C0,54.28,54.28,0,121,0c66.72,0,121,54.28,121,121
			C242,187.72,187.72,242,121,242z M121,8C58.691,8,8,58.691,8,121c0,62.309,50.691,113,113,113c62.309,0,113-50.691,113-113
			C234,58.691,183.309,8,121,8z"/>
	</g>
</g>
</svg>
