<?xml version="1.0" encoding="utf-8"?>
<!-- Generator: Adobe Illustrator 16.0.4, SVG Export Plug-In . SVG Version: 6.00 Build 0)  -->
<!DOCTYPE svg PUBLIC "-//W3C//DTD SVG 1.1//EN" "http://www.w3.org/Graphics/SVG/1.1/DTD/svg11.dtd">
<svg version="1.1" id="Layer_1" xmlns="http://www.w3.org/2000/svg" xmlns:xlink="http://www.w3.org/1999/xlink" x="0px" y="0px"
	 width="120px" height="59.549px" viewBox="0 0 120 59.549" enable-background="new 0 0 120 59.549" xml:space="preserve">
<g>
	<path fill="#2B2C2D" d="M87.947,25.844c-0.42,0-0.761,0.341-0.761,0.761v1.049v0.217c0,0.053-0.043,0.095-0.095,0.095
		c-0.026,0-0.049-0.01-0.066-0.025c-1.209-1.51-3.006-2.404-4.934-2.404c-3.649,0-6.617,3.133-6.617,6.985
		c0,3.798,2.968,6.888,6.617,6.888c1.924,0,3.713-0.879,4.921-2.357h0.001c0.018-0.024,0.045-0.04,0.078-0.04
		c0.052,0,0.095,0.043,0.095,0.096v1.246c0,0.42,0.341,0.762,0.761,0.762s0.762-0.342,0.762-0.762v-11.75
		C88.709,26.185,88.367,25.844,87.947,25.844 M82.092,37.888c-2.811,0-5.096-2.407-5.096-5.365c0-2.999,2.285-5.439,5.096-5.439
		c2.809,0,5.095,2.44,5.095,5.439C87.187,35.48,84.9,37.888,82.092,37.888"/>
	<path fill="#2B2C2D" d="M93.3,27.954c-0.001,0.001-0.003,0.001-0.003,0.002L93.3,27.954z"/>
	<polygon fill="#2B2C2D" points="93.293,37.022 93.294,37.022 93.295,37.023 	"/>
	<path fill="#2B2C2D" d="M98.227,25.537c-1.912,0-3.709,0.901-4.93,2.419c0-0.001,0.002-0.001,0.003-0.002l-0.003,0.002
		c-0.018,0.019-0.042,0.031-0.069,0.031c-0.053,0-0.095-0.043-0.095-0.095v-0.076v-1.211l0,0c0-0.42-0.342-0.761-0.762-0.761
		s-0.762,0.341-0.762,0.761v17.373c0,0.42,0.342,0.761,0.762,0.761s0.762-0.341,0.762-0.761l0,0v-6.887
		c0-0.053,0.042-0.096,0.095-0.096c0.026,0,0.05,0.011,0.066,0.027c0,0,0,0-0.001,0l0.002,0.001c0-0.001-0.001,0-0.001-0.001
		c1.221,1.497,3.019,2.388,4.933,2.388c3.663,0,6.643-3.09,6.643-6.888C104.869,28.67,101.89,25.537,98.227,25.537 M98.227,37.888
		c-2.809,0-5.094-2.407-5.094-5.365c0-2.999,2.285-5.439,5.094-5.439c2.811,0,5.096,2.44,5.096,5.439
		C103.322,35.48,101.037,37.888,98.227,37.888"/>
	<path fill="#2B2C2D" d="M113.393,25.537c-3.648,0-6.617,3.133-6.617,6.985c0,3.861,2.971,6.888,6.765,6.888
		c2.817,0,4.903-1.335,5.94-3.779l0,0c0.039-0.091,0.061-0.191,0.061-0.296c0-0.422-0.342-0.762-0.762-0.762
		c-0.316,0-0.582,0.192-0.697,0.467l0,0c-0.793,1.89-2.32,2.848-4.542,2.848c-2.804,0-4.971-2.08-5.219-4.918
		c0-0.104,0.085-0.189,0.19-0.189h10.729c0.421,0,0.759-0.341,0.759-0.761c-0.098-1.65-0.844-3.319-2.047-4.541
		C116.721,26.227,115.101,25.537,113.393,25.537 M118.293,31.067c0,0.105-0.084,0.19-0.189,0.19l0,0h-9.405l0,0
		c-0.104,0-0.19-0.085-0.19-0.19c0-0.018,0.002-0.033,0.007-0.05v0.001c0.606-2.313,2.575-3.935,4.878-3.935
		c2.295,0,4.273,1.624,4.898,3.939h-0.003C118.291,31.037,118.293,31.052,118.293,31.067"/>
	<path fill="#2B2C2D" d="M39.532,25.537c-3.648,0-6.616,3.133-6.616,6.985c0,3.861,2.971,6.888,6.764,6.888
		c2.818,0,4.904-1.335,5.941-3.779H45.62c0.039-0.091,0.06-0.191,0.06-0.296c0-0.422-0.34-0.762-0.761-0.762
		c-0.315,0-0.581,0.192-0.696,0.467l0,0c-0.794,1.89-2.32,2.848-4.543,2.848c-2.803,0-4.971-2.08-5.219-4.918
		c0-0.104,0.086-0.189,0.19-0.189h10.729c0.42,0,0.759-0.341,0.759-0.761c-0.097-1.65-0.843-3.319-2.046-4.541
		C42.86,26.227,41.24,25.537,39.532,25.537 M44.434,31.067c0,0.105-0.086,0.19-0.19,0.19l0,0h-9.405l0,0
		c-0.105,0-0.19-0.085-0.19-0.19c0-0.018,0.003-0.033,0.007-0.05v0.001c0.606-2.313,2.575-3.935,4.878-3.935
		c2.296,0,4.272,1.624,4.898,3.939h-0.003C44.432,31.037,44.434,31.052,44.434,31.067"/>
	<path fill="#2B2C2D" d="M59.059,28.653c0.031,0.084,0.052,0.177,0.052,0.272c0,0.42-0.341,0.761-0.761,0.761
		c-0.312,0-0.582-0.187-0.699-0.456c-0.548-1.454-1.873-2.221-3.85-2.221c-1.296,0-2.404,0.372-3.043,1.02
		c-0.354,0.36-0.537,0.792-0.529,1.246c0.02,1.125,0.927,1.594,3.886,2.01c2.751,0.41,5.312,1.17,5.444,3.923
		c0.028,1.007-0.325,1.964-0.969,2.634c-0.971,0.996-2.572,1.567-4.396,1.567c-3.159,0-5.363-1.339-6.032-3.615
		c-0.019-0.067-0.033-0.138-0.033-0.212c0-0.42,0.34-0.761,0.761-0.761c0.367,0,0.63,0.229,0.745,0.608v-0.002
		c0.531,1.621,2.125,2.508,4.535,2.508c1.373,0,2.613-0.433,3.314-1.158c0.383-0.404,0.57-0.939,0.529-1.508
		c-0.037-1.152-0.754-2.01-4.133-2.493l-0.068-0.01c-2.143-0.313-5.077-0.741-5.131-3.48c0-1.867,1.75-3.75,5.096-3.75
		C56.457,25.537,58.307,26.637,59.059,28.653"/>
	<path fill="#2B2C2D" d="M72.276,34.982c0.127-0.243,0.382-0.409,0.675-0.409c0.421,0,0.762,0.34,0.762,0.762
		c0,0.126-0.031,0.245-0.086,0.351l-0.002-0.001c-1.045,2.316-3.229,3.726-5.86,3.726c-3.649,0-6.617-3.09-6.617-6.888
		c0-3.852,2.968-6.986,6.617-6.986c2.646,0,4.854,1.45,5.899,3.826c0.027,0.079,0.045,0.163,0.045,0.25
		c0,0.42-0.341,0.761-0.762,0.761H72.92c-0.295,0-0.551-0.168-0.678-0.415c-0.818-1.806-2.473-2.876-4.478-2.876
		c-2.81,0-5.095,2.44-5.095,5.439c0,2.958,2.285,5.365,5.095,5.365C69.837,37.888,71.506,36.806,72.276,34.982"/>
	<path fill="#2B2C2D" d="M9.268,26.022c-1.437-0.658-3.081-0.755-4.583-0.268c-0.789,0.256-1.524,0.672-2.159,1.205
		c-0.319,0.268-0.613,0.565-0.879,0.886c-0.119,0.044-0.124-0.08-0.124-0.156c0-1.676,0-3.352,0.001-5.028c0-0.595,0-1.19,0-1.786
		c-0.008-0.715-0.947-1.034-1.377-0.449C0.011,20.611,0,20.816,0,21.032v1.652v5.884v3.81c0-0.118,0.012-0.236,0.018-0.354
		c-0.201,3.514,2.355,6.854,5.928,7.254c3.152,0.353,6.051-1.802,6.981-4.765C13.961,31.22,12.453,27.467,9.268,26.022
		C9.245,26.012,9.268,26.022,9.268,26.022 M11.695,32.686c-0.179,2.933-2.732,5.472-5.762,5.034
		c-3.295-0.477-5.147-4.162-4.113-7.198c0.779-2.285,3.07-3.863,5.502-3.506C10.037,27.414,11.855,30.022,11.695,32.686
		C11.522,35.519,11.703,32.567,11.695,32.686"/>
	<path fill="#2B2C2D" d="M16.623,39.297c-0.426,0-0.771-0.345-0.771-0.771v-17.64c0-0.426,0.346-0.771,0.771-0.771
		s0.771,0.345,0.771,0.771v17.64C17.395,38.952,17.049,39.297,16.623,39.297"/>
	<path fill="#2B2C2D" d="M25.481,39.294c-2.587,0-5.337-1.772-5.337-5.056v-7.546c0-0.426,0.345-0.771,0.771-0.771
		c0.426,0,0.771,0.345,0.771,0.771v7.546c0,2.281,1.955,3.513,3.795,3.513c2.317,0,3.702-1.314,3.702-3.516v-7.539
		c0-0.426,0.346-0.771,0.771-0.771s0.771,0.345,0.771,0.771v7.539C30.727,37.261,28.619,39.294,25.481,39.294"/>
	<path fill="#2B2C2D" d="M29.955,19.944c-0.174,0-0.314-0.141-0.314-0.315V0.315c0-0.094,0.041-0.183,0.113-0.243
		c0.072-0.06,0.167-0.084,0.26-0.067l57.992,11.018c0.148,0.028,0.256,0.158,0.256,0.309v8.215c0,0.174-0.141,0.314-0.314,0.314
		s-0.314-0.141-0.314-0.314v-7.955L30.27,0.695v18.934C30.27,19.803,30.129,19.944,29.955,19.944"/>
	<path fill="#2B2C2D" d="M29.955,59.549c-0.076,0-0.149-0.027-0.207-0.077c-0.068-0.061-0.107-0.146-0.107-0.237V43.383
		c0-0.174,0.141-0.315,0.314-0.315s0.314,0.142,0.314,0.315v15.491l57.363-7.785v-7.625c0-0.174,0.141-0.314,0.314-0.314
		s0.314,0.141,0.314,0.314v7.9c0,0.158-0.115,0.291-0.271,0.312l-57.993,7.869C29.982,59.548,29.969,59.549,29.955,59.549"/>
</g>
</svg>
